<mxGraphModel dx="0" dy="0" grid="1" gridSize="10" guides="1" tooltips="1" connect="1" arrows="1" fold="1" page="0" pageScale="1" background="none" math="0" shadow="0">
  <root>
    <mxCell id="0" />
    <mxCell id="1" parent="0" />
    <mxCell id="node6" parent="1" vertex="1" value="&lt;p style=&quot;margin:0px;margin-top:4px;text-align:center;&quot;&gt;&lt;b&gt;api/User_CRUD.js&lt;/b&gt;&lt;/p&gt;&lt;hr size=&quot;1&quot;/&gt;&lt;p style=&quot;margin:0 0 0 4px;line-height:1.6;&quot;&gt; HTTPCodes.js: &lt;br/&gt; express: &lt;br/&gt; user.js: &lt;br/&gt; userService.js: &lt;br/&gt; verifyToken: &lt;/p&gt;" style="verticalAlign=top;align=left;overflow=fill;fontSize=14;fontFamily=Helvetica;html=1;rounded=0;shadow=0;comic=0;labelBackgroundColor=none;strokeWidth=1;">
      <mxGeometry x="367" y="223" width="147" height="144" as="geometry" />
    </mxCell>
    <mxCell id="node8" parent="1" vertex="1" value="&lt;p style=&quot;margin:0px;margin-top:4px;text-align:center;&quot;&gt;&lt;b&gt;api/index.js&lt;/b&gt;&lt;/p&gt;&lt;hr size=&quot;1&quot;/&gt;&lt;p style=&quot;margin:0 0 0 4px;line-height:1.6;&quot;&gt; User_CRUD.js: &lt;br/&gt; express: &lt;br/&gt; login.js: &lt;/p&gt;" style="verticalAlign=top;align=left;overflow=fill;fontSize=14;fontFamily=Helvetica;html=1;rounded=0;shadow=0;comic=0;labelBackgroundColor=none;strokeWidth=1;">
      <mxGeometry x="500" y="616" width="126" height="108" as="geometry" />
    </mxCell>
    <mxCell id="node1" parent="1" vertex="1" value="&lt;p style=&quot;margin:0px;margin-top:4px;text-align:center;&quot;&gt;&lt;b&gt;api/login.js&lt;/b&gt;&lt;/p&gt;&lt;hr size=&quot;1&quot;/&gt;&lt;p style=&quot;margin:0 0 0 4px;line-height:1.6;&quot;&gt; HTTPCodes.js: &lt;br/&gt; bcrypt: &lt;br/&gt; express: &lt;br/&gt; jwt: &lt;br/&gt; userService.js: &lt;/p&gt;" style="verticalAlign=top;align=left;overflow=fill;fontSize=14;fontFamily=Helvetica;html=1;rounded=0;shadow=0;comic=0;labelBackgroundColor=none;strokeWidth=1;">
      <mxGeometry x="555" y="306" width="128" height="144" as="geometry" />
    </mxCell>
    <mxCell id="node12" parent="1" vertex="1" value="&lt;p style=&quot;margin:0px;margin-top:4px;text-align:center;&quot;&gt;&lt;b&gt;bcryptjs/index.js&lt;/b&gt;&lt;/p&gt;&lt;hr size=&quot;1&quot;/&gt;" style="verticalAlign=top;align=left;overflow=fill;fontSize=14;fontFamily=Helvetica;html=1;rounded=0;shadow=0;comic=0;labelBackgroundColor=none;strokeWidth=1;">
      <mxGeometry x="750" y="310" width="139" height="33" as="geometry" />
    </mxCell>
    <mxCell id="node4" parent="1" vertex="1" value="&lt;p style=&quot;margin:0px;margin-top:4px;text-align:center;&quot;&gt;&lt;b&gt;body-parser/index.js&lt;/b&gt;&lt;/p&gt;&lt;hr size=&quot;1&quot;/&gt;" style="verticalAlign=top;align=left;overflow=fill;fontSize=14;fontFamily=Helvetica;html=1;rounded=0;shadow=0;comic=0;labelBackgroundColor=none;strokeWidth=1;">
      <mxGeometry x="27" y="731" width="167" height="33" as="geometry" />
    </mxCell>
    <mxCell id="node11" parent="1" vertex="1" value="&lt;p style=&quot;margin:0px;margin-top:4px;text-align:center;&quot;&gt;&lt;b&gt;constants/HTTPCodes.js&lt;/b&gt;&lt;/p&gt;&lt;hr size=&quot;1&quot;/&gt;" style="verticalAlign=top;align=left;overflow=fill;fontSize=14;fontFamily=Helvetica;html=1;rounded=0;shadow=0;comic=0;labelBackgroundColor=none;strokeWidth=1;">
      <mxGeometry x="373" y="92" width="188" height="33" as="geometry" />
    </mxCell>
    <mxCell id="node16" parent="1" vertex="1" value="&lt;p style=&quot;margin:0px;margin-top:4px;text-align:center;&quot;&gt;&lt;b&gt;cors/.../index.js&lt;/b&gt;&lt;/p&gt;&lt;hr size=&quot;1&quot;/&gt;" style="verticalAlign=top;align=left;overflow=fill;fontSize=14;fontFamily=Helvetica;html=1;rounded=0;shadow=0;comic=0;labelBackgroundColor=none;strokeWidth=1;">
      <mxGeometry x="-113" y="503" width="130" height="33" as="geometry" />
    </mxCell>
    <mxCell id="node15" parent="1" vertex="1" value="&lt;p style=&quot;margin:0px;margin-top:4px;text-align:center;&quot;&gt;&lt;b&gt;express&lt;/b&gt;&lt;/p&gt;&lt;hr size=&quot;1&quot;/&gt;" style="verticalAlign=top;align=left;overflow=fill;fontSize=14;fontFamily=Helvetica;html=1;rounded=0;shadow=0;comic=0;labelBackgroundColor=none;strokeWidth=1;">
      <mxGeometry x="375" y="496" width="66" height="33" as="geometry" />
    </mxCell>
    <mxCell id="node5" parent="1" vertex="1" value="&lt;p style=&quot;margin:0px;margin-top:4px;text-align:center;&quot;&gt;&lt;b&gt;express-validator/.../index.d.ts&lt;/b&gt;&lt;/p&gt;&lt;hr size=&quot;1&quot;/&gt;" style="verticalAlign=top;align=left;overflow=fill;fontSize=14;fontFamily=Helvetica;html=1;rounded=0;shadow=0;comic=0;labelBackgroundColor=none;strokeWidth=1;">
      <mxGeometry x="705" y="-83" width="225" height="33" as="geometry" />
    </mxCell>
    <mxCell id="node10" parent="1" vertex="1" value="&lt;p style=&quot;margin:0px;margin-top:4px;text-align:center;&quot;&gt;&lt;b&gt;jsonwebtoken/index.js&lt;/b&gt;&lt;/p&gt;&lt;hr size=&quot;1&quot;/&gt;" style="verticalAlign=top;align=left;overflow=fill;fontSize=14;fontFamily=Helvetica;html=1;rounded=0;shadow=0;comic=0;labelBackgroundColor=none;strokeWidth=1;">
      <mxGeometry x="155" y="129" width="177" height="33" as="geometry" />
    </mxCell>
    <mxCell id="node7" parent="1" vertex="1" value="&lt;p style=&quot;margin:0px;margin-top:4px;text-align:center;&quot;&gt;&lt;b&gt;middleware/tokenValidator.js&lt;/b&gt;&lt;/p&gt;&lt;hr size=&quot;1&quot;/&gt;&lt;p style=&quot;margin:0 0 0 4px;line-height:1.6;&quot;&gt; jwt: &lt;/p&gt;" style="verticalAlign=top;align=left;overflow=fill;fontSize=14;fontFamily=Helvetica;html=1;rounded=0;shadow=0;comic=0;labelBackgroundColor=none;strokeWidth=1;">
      <mxGeometry x="141" y="-5" width="223" height="60" as="geometry" />
    </mxCell>
    <mxCell id="node13" parent="1" vertex="1" value="&lt;p style=&quot;margin:0px;margin-top:4px;text-align:center;&quot;&gt;&lt;b&gt;model/User.js&lt;/b&gt;&lt;/p&gt;&lt;hr size=&quot;1&quot;/&gt;&lt;p style=&quot;margin:0 0 0 4px;line-height:1.6;&quot;&gt; mongoose: &lt;/p&gt;" style="verticalAlign=top;align=left;overflow=fill;fontSize=14;fontFamily=Helvetica;html=1;rounded=0;shadow=0;comic=0;labelBackgroundColor=none;strokeWidth=1;">
      <mxGeometry x="39" y="281" width="126" height="60" as="geometry" />
    </mxCell>
    <mxCell id="node9" parent="1" vertex="1" value="&lt;p style=&quot;margin:0px;margin-top:4px;text-align:center;&quot;&gt;&lt;b&gt;mongoose&lt;/b&gt;&lt;/p&gt;&lt;hr size=&quot;1&quot;/&gt;" style="verticalAlign=top;align=left;overflow=fill;fontSize=14;fontFamily=Helvetica;html=1;rounded=0;shadow=0;comic=0;labelBackgroundColor=none;strokeWidth=1;">
      <mxGeometry x="238" y="315" width="88" height="33" as="geometry" />
    </mxCell>
    <mxCell id="node3" parent="1" vertex="1" value="&lt;p style=&quot;margin:0px;margin-top:4px;text-align:center;&quot;&gt;&lt;b&gt;route/index.js&lt;/b&gt;&lt;/p&gt;&lt;hr size=&quot;1&quot;/&gt;&lt;p style=&quot;margin:0 0 0 4px;line-height:1.6;&quot;&gt; express: &lt;br/&gt; index.js: &lt;/p&gt;" style="verticalAlign=top;align=left;overflow=fill;fontSize=14;fontFamily=Helvetica;html=1;rounded=0;shadow=0;comic=0;labelBackgroundColor=none;strokeWidth=1;">
      <mxGeometry x="324" y="621" width="124" height="84" as="geometry" />
    </mxCell>
    <mxCell id="node14" parent="1" vertex="1" value="&lt;p style=&quot;margin:0px;margin-top:4px;text-align:center;&quot;&gt;&lt;b&gt;service/userService.js&lt;/b&gt;&lt;/p&gt;&lt;hr size=&quot;1&quot;/&gt;&lt;p style=&quot;margin:0 0 0 4px;line-height:1.6;&quot;&gt; bcrypt: &lt;br/&gt; mongoose: &lt;/p&gt;" style="verticalAlign=top;align=left;overflow=fill;fontSize=14;fontFamily=Helvetica;html=1;rounded=0;shadow=0;comic=0;labelBackgroundColor=none;strokeWidth=1;">
      <mxGeometry x="570" y="167" width="170" height="84" as="geometry" />
    </mxCell>
    <mxCell id="node0" parent="1" vertex="1" value="&lt;p style=&quot;margin:0px;margin-top:4px;text-align:center;&quot;&gt;&lt;b&gt;src/app.js&lt;/b&gt;&lt;/p&gt;&lt;hr size=&quot;1&quot;/&gt;&lt;p style=&quot;margin:0 0 0 4px;line-height:1.6;&quot;&gt; User.js: &lt;br/&gt; bodyParser: &lt;br/&gt; cors: &lt;br/&gt; express: &lt;br/&gt; index.js: &lt;br/&gt; mongoose: &lt;/p&gt;" style="verticalAlign=top;align=left;overflow=fill;fontSize=14;fontFamily=Helvetica;html=1;rounded=0;shadow=0;comic=0;labelBackgroundColor=none;strokeWidth=1;">
      <mxGeometry x="124" y="447" width="116" height="166" as="geometry" />
    </mxCell>
    <mxCell id="node2" parent="1" vertex="1" value="&lt;p style=&quot;margin:0px;margin-top:4px;text-align:center;&quot;&gt;&lt;b&gt;validator/user.js&lt;/b&gt;&lt;/p&gt;&lt;hr size=&quot;1&quot;/&gt;&lt;p style=&quot;margin:0 0 0 4px;line-height:1.6;&quot;&gt; index.d.ts: &lt;br/&gt; userService.js: &lt;/p&gt;" style="verticalAlign=top;align=left;overflow=fill;fontSize=14;fontFamily=Helvetica;html=1;rounded=0;shadow=0;comic=0;labelBackgroundColor=none;strokeWidth=1;">
      <mxGeometry x="526" y="-36" width="138" height="84" as="geometry" />
    </mxCell>
    <mxCell id="edge26" edge="1" value="" parent="1" source="node6" target="node11" style="html=1;rounded=1;;dashed=0;startArrow=classic;startSize=12;endArrow=none;strokeColor=#595959;exitX=0.569;exitY=0.000;exitDx=0;exitDy=0;entryX=0.488;entryY=0.999;entryDx=0;entryDy=0;">
      <mxGeometry width="50" height="50" relative="1" as="geometry">
        <Array as="points" />
      </mxGeometry>
    </mxCell>
    <mxCell id="edge22" edge="1" value="" parent="1" source="node6" target="node15" style="html=1;rounded=1;;dashed=0;startArrow=classic;startSize=12;endArrow=none;strokeColor=#595959;exitX=0.426;exitY=1.000;exitDx=0;exitDy=0;entryX=0.535;entryY=0.000;entryDx=0;entryDy=0;">
      <mxGeometry width="50" height="50" relative="1" as="geometry">
        <Array as="points" />
      </mxGeometry>
    </mxCell>
    <mxCell id="edge11" edge="1" value="" parent="1" source="node6" target="node7" style="html=1;rounded=1;;dashed=0;startArrow=classic;startSize=12;endArrow=none;strokeColor=#595959;exitX=0.161;exitY=0.000;exitDx=0;exitDy=0;entryX=0.587;entryY=1.000;entryDx=0;entryDy=0;">
      <mxGeometry width="50" height="50" relative="1" as="geometry">
        <Array as="points" />
      </mxGeometry>
    </mxCell>
    <mxCell id="edge4" edge="1" value="" parent="1" source="node6" target="node14" style="html=1;rounded=1;;dashed=0;startArrow=classic;startSize=12;endArrow=none;strokeColor=#595959;exitX=1.000;exitY=0.288;exitDx=0;exitDy=0;entryX=0.000;entryY=0.952;entryDx=0;entryDy=0;">
      <mxGeometry width="50" height="50" relative="1" as="geometry">
        <Array as="points" />
      </mxGeometry>
    </mxCell>
    <mxCell id="edge10" edge="1" value="" parent="1" source="node6" target="node2" style="html=1;rounded=1;;dashed=0;startArrow=classic;startSize=12;endArrow=none;strokeColor=#595959;exitX=0.868;exitY=0.000;exitDx=0;exitDy=0;entryX=0.412;entryY=1.000;entryDx=0;entryDy=0;">
      <mxGeometry width="50" height="50" relative="1" as="geometry">
        <Array as="points">
          <mxPoint x="533" y="173" />
          <mxPoint x="544" y="154" />
          <mxPoint x="550" y="144" />
          <mxPoint x="554" y="134" />
        </Array>
      </mxGeometry>
    </mxCell>
    <mxCell id="edge7" edge="1" value="" parent="1" source="node8" target="node6" style="html=1;rounded=1;;dashed=0;startArrow=classic;startSize=12;endArrow=none;strokeColor=#595959;exitX=0.369;exitY=0.000;exitDx=0;exitDy=0;entryX=0.662;entryY=1.000;entryDx=0;entryDy=0;">
      <mxGeometry width="50" height="50" relative="1" as="geometry">
        <Array as="points" />
      </mxGeometry>
    </mxCell>
    <mxCell id="edge2" edge="1" value="" parent="1" source="node8" target="node1" style="html=1;rounded=1;;dashed=0;startArrow=classic;startSize=12;endArrow=none;strokeColor=#595959;exitX=0.577;exitY=0.000;exitDx=0;exitDy=0;entryX=0.391;entryY=1.000;entryDx=0;entryDy=0;">
      <mxGeometry width="50" height="50" relative="1" as="geometry">
        <Array as="points" />
      </mxGeometry>
    </mxCell>
    <mxCell id="edge14" edge="1" value="" parent="1" source="node8" target="node15" style="html=1;rounded=1;;dashed=0;startArrow=classic;startSize=12;endArrow=none;strokeColor=#595959;exitX=0.102;exitY=0.000;exitDx=0;exitDy=0;entryX=0.735;entryY=1.000;entryDx=0;entryDy=0;">
      <mxGeometry width="50" height="50" relative="1" as="geometry">
        <Array as="points" />
      </mxGeometry>
    </mxCell>
    <mxCell id="edge19" edge="1" value="" parent="1" source="node1" target="node12" style="html=1;rounded=1;;dashed=0;startArrow=classic;startSize=12;endArrow=none;strokeColor=#595959;exitX=1.000;exitY=0.384;exitDx=0;exitDy=0;entryX=0.074;entryY=1.000;entryDx=0;entryDy=0;">
      <mxGeometry width="50" height="50" relative="1" as="geometry">
        <Array as="points" />
      </mxGeometry>
    </mxCell>
    <mxCell id="edge16" edge="1" value="" parent="1" source="node1" target="node11" style="html=1;rounded=1;;dashed=0;startArrow=classic;startSize=12;endArrow=none;strokeColor=#595959;exitX=0.184;exitY=0.000;exitDx=0;exitDy=0;entryX=0.546;entryY=0.999;entryDx=0;entryDy=0;">
      <mxGeometry width="50" height="50" relative="1" as="geometry">
        <Array as="points" />
      </mxGeometry>
    </mxCell>
    <mxCell id="edge0" edge="1" value="" parent="1" source="node1" target="node15" style="html=1;rounded=1;;dashed=0;startArrow=classic;startSize=12;endArrow=none;strokeColor=#595959;exitX=0.000;exitY=0.781;exitDx=0;exitDy=0;entryX=0.871;entryY=0.000;entryDx=0;entryDy=0;">
      <mxGeometry width="50" height="50" relative="1" as="geometry">
        <Array as="points" />
      </mxGeometry>
    </mxCell>
    <mxCell id="edge17" edge="1" value="" parent="1" source="node1" target="node10" style="html=1;rounded=1;;dashed=0;startArrow=classic;startSize=12;endArrow=none;strokeColor=#595959;exitX=0.111;exitY=0.000;exitDx=0;exitDy=0;entryX=0.849;entryY=1.000;entryDx=0;entryDy=0;">
      <mxGeometry width="50" height="50" relative="1" as="geometry">
        <Array as="points">
          <mxPoint x="533" y="254" />
          <mxPoint x="524" y="242" />
          <mxPoint x="514" y="230" />
          <mxPoint x="503" y="219" />
          <mxPoint x="490" y="211" />
          <mxPoint x="476" y="204" />
          <mxPoint x="461" y="199" />
        </Array>
      </mxGeometry>
    </mxCell>
    <mxCell id="edge12" edge="1" value="" parent="1" source="node1" target="node14" style="html=1;rounded=1;;dashed=0;startArrow=classic;startSize=12;endArrow=none;strokeColor=#595959;exitX=0.618;exitY=0.000;exitDx=0;exitDy=0;entryX=0.452;entryY=1.000;entryDx=0;entryDy=0;">
      <mxGeometry width="50" height="50" relative="1" as="geometry">
        <Array as="points" />
      </mxGeometry>
    </mxCell>
    <mxCell id="edge20" edge="1" value="" parent="1" source="node7" target="node10" style="html=1;rounded=1;;dashed=0;startArrow=classic;startSize=12;endArrow=none;strokeColor=#595959;exitX=0.491;exitY=1.000;exitDx=0;exitDy=0;entryX=0.506;entryY=0.001;entryDx=0;entryDy=0;">
      <mxGeometry width="50" height="50" relative="1" as="geometry">
        <Array as="points" />
      </mxGeometry>
    </mxCell>
    <mxCell id="edge23" edge="1" value="" parent="1" source="node13" target="node9" style="html=1;rounded=1;;dashed=0;startArrow=classic;startSize=12;endArrow=none;strokeColor=#595959;exitX=1.000;exitY=0.634;exitDx=0;exitDy=0;entryX=0.000;entryY=0.330;entryDx=0;entryDy=0;">
      <mxGeometry width="50" height="50" relative="1" as="geometry">
        <Array as="points" />
      </mxGeometry>
    </mxCell>
    <mxCell id="edge18" edge="1" value="" parent="1" source="node3" target="node8" style="html=1;rounded=1;;dashed=0;startArrow=classic;startSize=12;endArrow=none;strokeColor=#595959;exitX=1.000;exitY=0.527;exitDx=0;exitDy=0;entryX=0.000;entryY=0.479;entryDx=0;entryDy=0;">
      <mxGeometry width="50" height="50" relative="1" as="geometry">
        <Array as="points" />
      </mxGeometry>
    </mxCell>
    <mxCell id="edge8" edge="1" value="" parent="1" source="node3" target="node15" style="html=1;rounded=1;;dashed=0;startArrow=classic;startSize=12;endArrow=none;strokeColor=#595959;exitX=0.547;exitY=0.000;exitDx=0;exitDy=0;entryX=0.465;entryY=0.999;entryDx=0;entryDy=0;">
      <mxGeometry width="50" height="50" relative="1" as="geometry">
        <Array as="points" />
      </mxGeometry>
    </mxCell>
    <mxCell id="edge5" edge="1" value="" parent="1" source="node14" target="node12" style="html=1;rounded=1;;dashed=0;startArrow=classic;startSize=12;endArrow=none;strokeColor=#595959;exitX=0.816;exitY=1.000;exitDx=0;exitDy=0;entryX=0.346;entryY=0.000;entryDx=0;entryDy=0;">
      <mxGeometry width="50" height="50" relative="1" as="geometry">
        <Array as="points" />
      </mxGeometry>
    </mxCell>
    <mxCell id="edge24" edge="1" value="" parent="1" source="node14" target="node9" style="html=1;rounded=1;;dashed=0;startArrow=classic;startSize=12;endArrow=none;strokeColor=#595959;exitX=0.000;exitY=0.463;exitDx=0;exitDy=0;entryX=0.646;entryY=0.000;entryDx=0;entryDy=0;">
      <mxGeometry width="50" height="50" relative="1" as="geometry">
        <Array as="points">
          <mxPoint x="502" y="201" />
          <mxPoint x="448" y="197" />
          <mxPoint x="433" y="197" />
          <mxPoint x="419" y="199" />
          <mxPoint x="405" y="203" />
          <mxPoint x="392" y="210" />
          <mxPoint x="380" y="217" />
          <mxPoint x="370" y="227" />
          <mxPoint x="360" y="237" />
        </Array>
      </mxGeometry>
    </mxCell>
    <mxCell id="edge6" edge="1" value="" parent="1" source="node0" target="node4" style="html=1;rounded=1;;dashed=0;startArrow=classic;startSize=12;endArrow=none;strokeColor=#595959;exitX=0.264;exitY=1.000;exitDx=0;exitDy=0;entryX=0.531;entryY=0.001;entryDx=0;entryDy=0;">
      <mxGeometry width="50" height="50" relative="1" as="geometry">
        <Array as="points" />
      </mxGeometry>
    </mxCell>
    <mxCell id="edge1" edge="1" value="" parent="1" source="node0" target="node16" style="html=1;rounded=1;;dashed=0;startArrow=classic;startSize=12;endArrow=none;strokeColor=#595959;exitX=0.000;exitY=0.483;exitDx=0;exitDy=0;entryX=1.000;entryY=0.605;entryDx=0;entryDy=0;">
      <mxGeometry width="50" height="50" relative="1" as="geometry">
        <Array as="points" />
      </mxGeometry>
    </mxCell>
    <mxCell id="edge25" edge="1" value="" parent="1" source="node0" target="node15" style="html=1;rounded=1;;dashed=0;startArrow=classic;startSize=12;endArrow=none;strokeColor=#595959;exitX=1.000;exitY=0.471;exitDx=0;exitDy=0;entryX=0.000;entryY=0.587;entryDx=0;entryDy=0;">
      <mxGeometry width="50" height="50" relative="1" as="geometry">
        <Array as="points" />
      </mxGeometry>
    </mxCell>
    <mxCell id="edge13" edge="1" value="" parent="1" source="node0" target="node13" style="html=1;rounded=1;;dashed=0;startArrow=classic;startSize=12;endArrow=none;strokeColor=#595959;exitX=0.241;exitY=0.000;exitDx=0;exitDy=0;entryX=0.580;entryY=1.000;entryDx=0;entryDy=0;">
      <mxGeometry width="50" height="50" relative="1" as="geometry">
        <Array as="points" />
      </mxGeometry>
    </mxCell>
    <mxCell id="edge9" edge="1" value="" parent="1" source="node0" target="node9" style="html=1;rounded=1;;dashed=0;startArrow=classic;startSize=12;endArrow=none;strokeColor=#595959;exitX=0.859;exitY=0.000;exitDx=0;exitDy=0;entryX=0.412;entryY=1.000;entryDx=0;entryDy=0;">
      <mxGeometry width="50" height="50" relative="1" as="geometry">
        <Array as="points" />
      </mxGeometry>
    </mxCell>
    <mxCell id="edge15" edge="1" value="" parent="1" source="node0" target="node3" style="html=1;rounded=1;;dashed=0;startArrow=classic;startSize=12;endArrow=none;strokeColor=#595959;exitX=1.000;exitY=0.723;exitDx=0;exitDy=0;entryX=0.006;entryY=0.000;entryDx=0;entryDy=0;">
      <mxGeometry width="50" height="50" relative="1" as="geometry">
        <Array as="points" />
      </mxGeometry>
    </mxCell>
    <mxCell id="edge21" edge="1" value="" parent="1" source="node2" target="node5" style="html=1;rounded=1;;dashed=0;startArrow=classic;startSize=12;endArrow=none;strokeColor=#595959;exitX=1.000;exitY=0.220;exitDx=0;exitDy=0;entryX=0.283;entryY=1.000;entryDx=0;entryDy=0;">
      <mxGeometry width="50" height="50" relative="1" as="geometry">
        <Array as="points" />
      </mxGeometry>
    </mxCell>
    <mxCell id="edge3" edge="1" value="" parent="1" source="node2" target="node14" style="html=1;rounded=1;;dashed=0;startArrow=classic;startSize=12;endArrow=none;strokeColor=#595959;exitX=0.583;exitY=1.000;exitDx=0;exitDy=0;entryX=0.432;entryY=0.000;entryDx=0;entryDy=0;">
      <mxGeometry width="50" height="50" relative="1" as="geometry">
        <Array as="points" />
      </mxGeometry>
    </mxCell>
  </root>
</mxGraphModel>